<svg version="1.1" id="Layer_1" xmlns="http://www.w3.org/2000/svg" xmlns:xlink="http://www.w3.org/1999/xlink" x="0px" y="0px" viewBox="0 0 80 80" style="enable-background:new 0 0 80 80;" xml:space="preserve">
	<style type="text/css">
		.st0 {
		fill: indigo;
		}
		
		.st1 {
		fill: none;
		stroke: indigo;
		stroke-width: 3.5;
		stroke-linecap: round;
		stroke-linejoin: round;
		stroke-miterlimit: 10;
		}
	</style>
	<g>
		<circle class="st0" cx="60.95" cy="23.15" r="2.5" />
		<circle class="st0" cx="53.51" cy="25.66" r="2.5" />
		<circle class="st0" cx="59.44" cy="30.66" r="2.5" />
	</g>
	<g>
		<circle class="st1" cx="58.09" cy="26.91" r="11.42" />
		<g>
			<g>
				<line class="st1" x1="58.09" y1="8.27" x2="58.09" y2="15.48" />
				<line class="st1" x1="55.23" y1="6.91" x2="60.95" y2="6.91" />
			</g>
			<g>
				<line class="st1" x1="58.09" y1="45.54" x2="58.09" y2="38.34" />
				<line class="st1" x1="55.23" y1="46.91" x2="60.95" y2="46.91" />
			</g>
		</g>
		<g>
			<g>
				<line class="st1" x1="44.92" y1="13.73" x2="50.01" y2="18.83" />
				<line class="st1" x1="41.93" y1="14.79" x2="45.97" y2="10.74" />
			</g>
			<g>
				<line class="st1" x1="71.27" y1="40.08" x2="66.17" y2="34.99" />
				<line class="st1" x1="70.21" y1="43.07" x2="74.25" y2="39.03" />
			</g>
		</g>
		<g>
			<g>
				<line class="st1" x1="39.46" y1="26.91" x2="46.66" y2="26.91" />
				<line class="st1" x1="38.09" y1="29.76" x2="38.09" y2="24.05" />
			</g>
			<g>
				<line class="st1" x1="76.72" y1="26.91" x2="69.52" y2="26.91" />
				<line class="st1" x1="78.09" y1="29.76" x2="78.09" y2="24.05" />
			</g>
		</g>
		<g>
			<g>
				<line class="st1" x1="44.92" y1="40.08" x2="50.01" y2="34.99" />
				<line class="st1" x1="45.97" y1="43.07" x2="41.93" y2="39.03" />
			</g>
			<g>
				<line class="st1" x1="71.27" y1="13.73" x2="66.17" y2="18.83" />
				<line class="st1" x1="74.25" y1="14.79" x2="70.21" y2="10.74" />
			</g>
		</g>
	</g>
	<g>
		<path class="st0" d="M3.99,33.65c-0.68,0.68-1.79,0.68-2.47,0c-0.68-0.68-0.68-1.79,0-2.47l14.83-14.84c0.68-0.68,1.79-0.68,2.47,0
		c0.68,0.68,0.68,1.79,0,2.47L3.99,33.65z" />
		<path class="st0" d="M34.94,25.57L10.75,49.76c-0.68,0.68-1.79,0.68-2.47,0c-0.68-0.68-0.68-1.79,0-2.47L32.46,23.1
		c0.68-0.68,1.79-0.68,2.47,0C35.62,23.78,35.62,24.89,34.94,25.57z" />
		<path class="st0" d="M58.3,62.12l-11,10.99c-1.22,1.21-2.83,1.88-4.54,1.88c-1.71,0-3.32-0.67-4.53-1.88l-26.21-26.2
		c-0.68-0.68-0.68-1.79,0-2.47c0.68-0.68,1.79-0.68,2.47,0l26.21,26.2c0.55,0.55,1.28,0.86,2.05,0.86c0.78,0,1.51-0.3,2.07-0.86
		l10.99-10.99c1.14-1.14,1.14-2.99,0-4.13L29.61,29.32c-0.68-0.68-0.68-1.79,0-2.47c0.68-0.68,1.79-0.68,2.47,0L58.3,53.05
		C60.8,55.55,60.8,59.62,58.3,62.12z" />
		<path class="st0" d="M40.93,39.01l-5.9,5.9c-0.68,0.68-1.79,0.68-2.47,0s-0.68-1.79,0-2.47l5.9-5.9c0.68-0.68,1.79-0.68,2.47,0
		S41.61,38.33,40.93,39.01z" />
		<path class="st0" d="M51.31,49.4l-5.89,5.89c-0.68,0.68-1.79,0.68-2.47,0s-0.68-1.79,0-2.47l5.89-5.89c0.68-0.68,1.79-0.68,2.47,0
		C52,47.61,52,48.72,51.31,49.4z" />
		<path class="st0" d="M62.31,77.14c-0.68,0.68-1.79,0.68-2.47,0l-9.08-9.08c-0.68-0.68-0.68-1.79,0-2.47l0,0
		c0.68-0.68,1.79-0.68,2.47,0l9.08,9.08C63,75.34,63,76.45,62.31,77.14L62.31,77.14z" />
		<path class="st0" d="M26.48,33.46L26.48,33.46c-0.68,0.68-1.79,0.68-2.47,0L13.14,22.59c-0.68-0.68-0.68-1.79,0-2.47l0,0
		c0.68-0.68,1.79-0.68,2.47,0l10.87,10.87C27.17,31.67,27.17,32.77,26.48,33.46z" />
		<path class="st0" d="M18.63,41.3L18.63,41.3c-0.68,0.68-1.79,0.68-2.47,0L5.29,30.43c-0.68-0.68-0.68-1.79,0-2.47l0,0
		c0.68-0.68,1.79-0.68,2.47,0l10.87,10.87C19.32,39.51,19.32,40.62,18.63,41.3z" />
	</g>
</svg>
